<?xml version="1.0" encoding="utf-8"?>
<svg width="262px" height="60px" viewbox="0 0 262 60" version="1.1" xmlns:xlink="http://www.w3.org/1999/xlink" xmlns="http://www.w3.org/2000/svg">
  <g id="full-logo">
    <g id="E-bars" transform="translate(18 12)">
      <path d="M0 0L38 0L38 6L0 6L0 0Z" id="Rectangle" fill="#FFFFFF" fill-rule="evenodd" stroke="none" />
      <path d="M0 0L38 0L38 6L0 6L0 0Z" transform="translate(0 38)" id="Rectangle-2" fill="#FFFFFF" fill-rule="evenodd" stroke="none" />
      <path d="M6 0L6 38L0 38L0 0L6 0Z" transform="translate(31.99997 1.9999695)" id="Rectangle-3" fill="#FFFFFF" fill-rule="evenodd" stroke="none" />
    </g>
    <g id="horizontal-bar" transform="translate(0 24)">
      <path d="M2.999 0L20.001 0Q20.1483 0 20.295 0.014441Q20.4416 0.028882 20.5861 0.0576249Q20.7306 0.0863679 20.8716 0.129136Q21.0126 0.171904 21.1487 0.228285Q21.2848 0.284667 21.4147 0.354118Q21.5447 0.42357 21.6672 0.505423Q21.7897 0.587276 21.9035 0.680742Q22.0174 0.774208 22.1216 0.878387Q22.2258 0.982566 22.3193 1.09645Q22.4127 1.21034 22.4946 1.33284Q22.5764 1.45535 22.6459 1.58528Q22.7153 1.71522 22.7717 1.85133Q22.8281 1.98745 22.8709 2.12844Q22.9136 2.26942 22.9424 2.41392Q22.9711 2.55842 22.9856 2.70505Q23 2.85167 23 2.999L23 3.001Q23 3.14833 22.9856 3.29495Q22.9711 3.44158 22.9424 3.58608Q22.9136 3.73058 22.8709 3.87156Q22.8281 4.01255 22.7717 4.14867Q22.7153 4.28478 22.6459 4.41472Q22.5764 4.54465 22.4946 4.66715Q22.4127 4.78966 22.3193 4.90355Q22.2258 5.01743 22.1216 5.12161Q22.0174 5.22579 21.9035 5.31926Q21.7897 5.41272 21.6672 5.49458Q21.5447 5.57643 21.4147 5.64588Q21.2848 5.71533 21.1487 5.77171Q21.0126 5.8281 20.8716 5.87086Q20.7306 5.91363 20.5861 5.94237Q20.4416 5.97112 20.295 5.98556Q20.1483 6 20.001 6L2.999 6Q2.85167 6 2.70505 5.98556Q2.55842 5.97112 2.41392 5.94237Q2.26942 5.91363 2.12844 5.87086Q1.98745 5.8281 1.85133 5.77171Q1.71522 5.71533 1.58528 5.64588Q1.45535 5.57643 1.33284 5.49458Q1.21034 5.41272 1.09645 5.31926Q0.982566 5.22579 0.878387 5.12161Q0.774208 5.01743 0.680742 4.90355Q0.587276 4.78966 0.505423 4.66715Q0.42357 4.54465 0.354118 4.41472Q0.284667 4.28478 0.228285 4.14867Q0.171904 4.01255 0.129136 3.87156Q0.0863679 3.73058 0.0576249 3.58608Q0.028882 3.44158 0.014441 3.29495Q0 3.14833 0 3.001L0 2.999Q0 2.85167 0.014441 2.70505Q0.028882 2.55842 0.0576249 2.41392Q0.0863679 2.26942 0.129136 2.12844Q0.171904 1.98745 0.228285 1.85133Q0.284667 1.71522 0.354118 1.58528Q0.42357 1.45535 0.505423 1.33284Q0.587276 1.21034 0.680742 1.09645Q0.774208 0.982566 0.878387 0.878387Q0.982566 0.774208 1.09645 0.680742Q1.21034 0.587276 1.33284 0.505423Q1.45535 0.42357 1.58528 0.354118Q1.71522 0.284667 1.85133 0.228285Q1.98745 0.171904 2.12844 0.129136Q2.26942 0.0863679 2.41392 0.0576249Q2.55842 0.028882 2.70505 0.014441Q2.85167 0 2.999 0L2.999 0Z" transform="translate(23 0)" id="Rectangle-4" fill="#0A0362" fill-rule="evenodd" stroke="none" />
      <path d="M2.999 0L14.001 0Q14.1483 0 14.295 0.014441Q14.4416 0.028882 14.5861 0.0576249Q14.7306 0.0863679 14.8716 0.129136Q15.0126 0.171904 15.1487 0.228285Q15.2848 0.284667 15.4147 0.354118Q15.5447 0.42357 15.6672 0.505423Q15.7897 0.587276 15.9035 0.680742Q16.0174 0.774208 16.1216 0.878387Q16.2258 0.982566 16.3193 1.09645Q16.4127 1.21034 16.4946 1.33284Q16.5764 1.45535 16.6459 1.58528Q16.7153 1.71522 16.7717 1.85133Q16.8281 1.98745 16.8709 2.12844Q16.9136 2.26942 16.9424 2.41392Q16.9711 2.55842 16.9856 2.70505Q17 2.85167 17 2.999L17 3.001Q17 3.14833 16.9856 3.29495Q16.9711 3.44158 16.9424 3.58608Q16.9136 3.73058 16.8709 3.87156Q16.8281 4.01255 16.7717 4.14867Q16.7153 4.28478 16.6459 4.41472Q16.5764 4.54465 16.4946 4.66715Q16.4127 4.78966 16.3193 4.90355Q16.2258 5.01743 16.1216 5.12161Q16.0174 5.22579 15.9035 5.31926Q15.7897 5.41272 15.6672 5.49458Q15.5447 5.57643 15.4147 5.64588Q15.2848 5.71533 15.1487 5.77171Q15.0126 5.8281 14.8716 5.87086Q14.7306 5.91363 14.5861 5.94237Q14.4416 5.97112 14.295 5.98556Q14.1483 6 14.001 6L2.999 6Q2.85167 6 2.70505 5.98556Q2.55842 5.97112 2.41392 5.94237Q2.26942 5.91363 2.12844 5.87086Q1.98745 5.8281 1.85133 5.77171Q1.71522 5.71533 1.58528 5.64588Q1.45535 5.57643 1.33284 5.49458Q1.21034 5.41272 1.09645 5.31926Q0.982566 5.22579 0.878387 5.12161Q0.774208 5.01743 0.680742 4.90355Q0.587276 4.78966 0.505423 4.66715Q0.42357 4.54465 0.354118 4.41472Q0.284667 4.28478 0.228285 4.14867Q0.171904 4.01255 0.129136 3.87156Q0.0863679 3.73058 0.0576249 3.58608Q0.028882 3.44158 0.014441 3.29495Q0 3.14833 0 3.001L0 2.999Q0 2.85167 0.014441 2.70505Q0.028882 2.55842 0.0576249 2.41392Q0.0863679 2.26942 0.129136 2.12844Q0.171904 1.98745 0.228285 1.85133Q0.284667 1.71522 0.354118 1.58528Q0.42357 1.45535 0.505423 1.33284Q0.587276 1.21034 0.680742 1.09645Q0.774208 0.982566 0.878387 0.878387Q0.982566 0.774208 1.09645 0.680742Q1.21034 0.587276 1.33284 0.505423Q1.45535 0.42357 1.58528 0.354118Q1.71522 0.284667 1.85133 0.228285Q1.98745 0.171904 2.12844 0.129136Q2.26942 0.0863679 2.41392 0.0576249Q2.55842 0.028882 2.70505 0.014441Q2.85167 0 2.999 0L2.999 0Z" transform="translate(1 0)" id="Rectangle-6" fill="#0A0362" fill-rule="evenodd" stroke="none" />
      <path d="M2.999 0L43.001 0Q43.1483 0 43.295 0.014441Q43.4416 0.028882 43.5861 0.0576249Q43.7306 0.0863679 43.8716 0.129136Q44.0125 0.171904 44.1487 0.228285Q44.2848 0.284667 44.4147 0.354118Q44.5447 0.42357 44.6672 0.505423Q44.7897 0.587276 44.9035 0.680742Q45.0174 0.774208 45.1216 0.878387Q45.2258 0.982566 45.3193 1.09645Q45.4127 1.21034 45.4946 1.33284Q45.5764 1.45535 45.6459 1.58528Q45.7153 1.71522 45.7717 1.85133Q45.8281 1.98745 45.8709 2.12844Q45.9136 2.26942 45.9424 2.41392Q45.9711 2.55842 45.9856 2.70505Q46 2.85167 46 2.999L46 3.001Q46 3.14833 45.9856 3.29495Q45.9711 3.44158 45.9424 3.58608Q45.9136 3.73058 45.8709 3.87156Q45.8281 4.01255 45.7717 4.14867Q45.7153 4.28478 45.6459 4.41472Q45.5764 4.54465 45.4946 4.66715Q45.4127 4.78966 45.3193 4.90355Q45.2258 5.01743 45.1216 5.12161Q45.0174 5.22579 44.9035 5.31926Q44.7897 5.41272 44.6672 5.49458Q44.5447 5.57643 44.4147 5.64588Q44.2848 5.71533 44.1487 5.77171Q44.0125 5.8281 43.8716 5.87086Q43.7306 5.91363 43.5861 5.94237Q43.4416 5.97112 43.295 5.98556Q43.1483 6 43.001 6L2.999 6Q2.85167 6 2.70505 5.98556Q2.55842 5.97112 2.41392 5.94237Q2.26942 5.91363 2.12844 5.87086Q1.98745 5.8281 1.85133 5.77171Q1.71522 5.71533 1.58528 5.64588Q1.45535 5.57643 1.33284 5.49458Q1.21034 5.41272 1.09645 5.31926Q0.982566 5.22579 0.878387 5.12161Q0.774208 5.01743 0.680742 4.90355Q0.587276 4.78966 0.505423 4.66715Q0.42357 4.54465 0.354118 4.41472Q0.284667 4.28478 0.228285 4.14867Q0.171904 4.01255 0.129136 3.87156Q0.0863679 3.73058 0.0576249 3.58608Q0.028882 3.44158 0.014441 3.29495Q0 3.14833 0 3.001L0 2.999Q0 2.85167 0.014441 2.70505Q0.028882 2.55842 0.0576249 2.41392Q0.0863679 2.26942 0.129136 2.12844Q0.171904 1.98745 0.228285 1.85133Q0.284667 1.71522 0.354118 1.58528Q0.42357 1.45535 0.505423 1.33284Q0.587276 1.21034 0.680742 1.09645Q0.774208 0.982566 0.878387 0.878387Q0.982566 0.774208 1.09645 0.680742Q1.21034 0.587276 1.33284 0.505423Q1.45535 0.42357 1.58528 0.354118Q1.71522 0.284667 1.85133 0.228285Q1.98745 0.171904 2.12844 0.129136Q2.26942 0.0863679 2.41392 0.0576249Q2.55842 0.028882 2.70505 0.014441Q2.85167 0 2.999 0L2.999 0Z" transform="translate(0 14)" id="Rectangle-5" fill="#0A0362" fill-rule="evenodd" stroke="none" />
    </g>
    <g id="rings" transform="translate(59 14)">
      <g id="line-ring">
        <path d="M0 0L27 0L27 1L0 1L0 0Z" transform="translate(0 3)" id="Rectangle-7" fill="#0A0362" fill-rule="evenodd" stroke="none" />
        <path d="M0 3C0 1.34315 1.34315 0 3 0C4.65685 0 6 1.34315 6 3C6 4.65685 4.65685 6 3 6C1.34315 6 0 4.65685 0 3Z" transform="translate(28 0)" id="Ellipse" fill="#0A0362" fill-rule="evenodd" stroke="none" />
      </g>
      <g id="line-ring-2" transform="translate(0 15)">
        <path d="M0 0L27 0L27 1L0 1L0 0Z" transform="translate(0 3)" id="Rectangle-7" fill="#0A0362" fill-rule="evenodd" stroke="none" />
        <path d="M0 3C0 1.34315 1.34315 0 3 0C4.65685 0 6 1.34315 6 3C6 4.65685 4.65685 6 3 6C1.34315 6 0 4.65685 0 3Z" transform="translate(28 0)" id="Ellipse" fill="#0A0362" fill-rule="evenodd" stroke="none" />
      </g>
      <g id="line-ring-3" transform="translate(0 31)">
        <path d="M0 0L27 0L27 1L0 1L0 0Z" transform="translate(0 3)" id="Rectangle-7" fill="#0A0362" fill-rule="evenodd" stroke="none" />
        <path d="M0 3C0 1.34315 1.34315 0 3 0C4.65685 0 6 1.34315 6 3C6 4.65685 4.65685 6 3 6C1.34315 6 0 4.65685 0 3Z" transform="translate(28 0)" id="Ellipse" fill="#0A0362" fill-rule="evenodd" stroke="none" />
      </g>
    </g>
    <g id="Title" transform="translate(93 0)">
      <g id="FORDATA" fill="#FFFFFF">
        <path d="M46.3184 24.4648Q46.3184 30.8457 43.1543 34.2734Q39.9902 37.7012 34.084 37.7012Q28.1777 37.7012 25.0137 34.2734Q21.8496 30.8457 21.8496 24.4297Q21.8496 18.0137 25.0225 14.6299Q28.1953 11.2461 34.1191 11.2461Q40.043 11.2461 43.1807 14.6563Q46.3184 18.0664 46.3184 24.4648ZM115.928 31.2324L117.791 37.3496L123.662 37.3496L114.557 11.5449L107.895 11.5449L98.8242 37.3496L104.695 37.3496L106.559 31.2324L115.928 31.2324ZM161.613 31.2324L163.477 37.3496L169.348 37.3496L160.242 11.5449L153.58 11.5449L144.51 37.3496L150.381 37.3496L152.244 31.2324L161.613 31.2324ZM8.5957 37.3496L3.23438 37.3496L3.23438 11.6504L17.9648 11.6504L17.9648 16.1152L8.5957 16.1152L8.5957 22.7422L17.3145 22.7422L17.3145 27.1895L8.5957 27.1895L8.5957 37.3496ZM57.0938 37.3496L57.0938 27.4883L59.9941 27.4883L66.1289 37.3496L72.1758 37.3496Q70.418 34.8184 64.6172 26.1523Q66.9023 25.1504 68.1504 23.3838Q69.3984 21.6172 69.3984 19.3496Q69.3984 15.4648 66.8848 13.5576Q64.3711 11.6504 59.1328 11.6504L51.6445 11.6504L51.6445 37.3496L57.0938 37.3496ZM96.7324 24.2539Q96.7324 30.5996 93.1201 33.9746Q89.5078 37.3496 82.6875 37.3496L75.4102 37.3496L75.4102 11.6504L83.4785 11.6504Q89.7715 11.6504 93.252 14.9727Q96.7324 18.2949 96.7324 24.2539ZM136.811 37.3496L131.361 37.3496L131.361 16.1855L124.383 16.1855L124.383 11.6504L143.789 11.6504L143.789 16.1855L136.811 16.1855L136.811 37.3496ZM111.718 17.2578Q112.043 18.3477 114.627 26.6621L107.93 26.6621Q110.672 17.7852 111.252 15.5352Q111.393 16.168 111.718 17.2578ZM157.403 17.2578Q157.729 18.3477 160.313 26.6621L153.615 26.6621Q156.357 17.7852 156.938 15.5352Q157.078 16.168 157.403 17.2578ZM27.5625 24.4648Q27.5625 28.7715 29.1973 30.9512Q30.832 33.1309 34.084 33.1309Q40.6055 33.1309 40.6055 24.4648Q40.6055 15.7813 34.1191 15.7813Q30.8672 15.7813 29.2148 17.9697Q27.5625 20.1582 27.5625 24.4648ZM58.8516 23.0586L57.0938 23.0586L57.0938 16.1152L58.7461 16.1152Q61.3828 16.1152 62.6396 16.8887Q63.8965 17.6621 63.8965 19.4902Q63.8965 21.3359 62.666 22.1973Q61.4355 23.0586 58.8516 23.0586ZM91.0723 24.3945Q91.0723 16.1152 83.7598 16.1152L80.8594 16.1152L80.8594 32.8496L83.1973 32.8496Q91.0723 32.8496 91.0723 24.3945Z" />
      </g>
      <g id="Services" fill="#FFFFFF" transform="translate(1 35)">
        <path d="M37.7666 6.68164Q37.7666 6.18066 38.0127 5.94775Q38.2588 5.71484 38.6279 5.71484Q38.9795 5.71484 39.2344 5.95215Q39.4893 6.18945 39.4893 6.68164Q39.4893 7.17383 39.2344 7.41553Q38.9795 7.65723 38.6279 7.65723Q38.2588 7.65723 38.0127 7.41553Q37.7666 7.17383 37.7666 6.68164ZM7.78711 18.1514Q9.01758 17.2021 9.01758 15.5059Q9.01758 14.1875 8.25732 13.3613Q7.49707 12.5352 5.47559 11.8145Q4.27148 11.3838 3.68701 11.0278Q3.10254 10.6719 2.85645 10.2456Q2.61035 9.81934 2.61035 9.15137Q2.61035 8.24609 3.27832 7.73633Q3.94629 7.22656 5.13281 7.22656Q6.63574 7.22656 8.22656 7.89453L8.69238 6.59375Q7.08398 5.89063 5.16797 5.89063Q3.33105 5.89063 2.21484 6.76953Q1.09863 7.64844 1.09863 9.13379Q1.09863 10.5488 1.86768 11.4277Q2.63672 12.3066 4.42969 12.9482Q5.71289 13.4053 6.34131 13.7656Q6.96973 14.126 7.23779 14.5522Q7.50586 14.9785 7.50586 15.6465Q7.50586 16.6572 6.75 17.2241Q5.99414 17.791 4.5 17.791Q3.58594 17.791 2.6543 17.5977Q1.72266 17.4043 0.931641 17.0703L0.931641 18.5117Q2.16211 19.1006 4.44727 19.1006Q6.55664 19.1006 7.78711 18.1514ZM12.1245 17.7998Q13.3594 19.1006 15.4951 19.1006Q16.4707 19.1006 17.1606 18.9556Q17.8506 18.8105 18.624 18.4766L18.624 17.1758Q17.1035 17.8262 15.5479 17.8262Q14.0713 17.8262 13.2583 16.9473Q12.4453 16.0684 12.4014 14.3721L19.0371 14.3721L19.0371 13.4492Q19.0371 11.498 17.9824 10.3071Q16.9277 9.11621 15.1172 9.11621Q13.1836 9.11621 12.0366 10.4873Q10.8896 11.8584 10.8896 14.1875Q10.8896 16.499 12.1245 17.7998ZM25.9189 9.11621Q26.5605 9.11621 27.0703 9.22168L26.8682 10.5752Q26.2705 10.4434 25.8135 10.4434Q24.6445 10.4434 23.814 11.3926Q22.9834 12.3418 22.9834 13.7568L22.9834 18.9248L21.5244 18.9248L21.5244 9.29199L22.7285 9.29199L22.8955 11.0762L22.9658 11.0762Q23.502 10.1357 24.2578 9.62598Q25.0137 9.11621 25.9189 9.11621ZM43.0532 17.813Q44.2002 19.1006 46.292 19.1006Q47.7598 19.1006 48.7266 18.5996L48.7266 17.3076Q47.4609 17.8262 46.2568 17.8262Q44.8506 17.8262 44.1343 16.877Q43.418 15.9277 43.418 14.1523Q43.418 10.4082 46.3535 10.4082Q46.793 10.4082 47.3643 10.5356Q47.9355 10.6631 48.4189 10.8564L48.8672 9.61719Q48.4717 9.41504 47.7773 9.26563Q47.083 9.11621 46.3887 9.11621Q44.2354 9.11621 43.0708 10.4346Q41.9063 11.7529 41.9063 14.1699Q41.9063 16.5254 43.0532 17.813ZM55.0811 19.1006Q52.9453 19.1006 51.7104 17.7998Q50.4756 16.499 50.4756 14.1875Q50.4756 11.8584 51.6226 10.4873Q52.7695 9.11621 54.7031 9.11621Q56.5137 9.11621 57.5684 10.3071Q58.623 11.498 58.623 13.4492L58.623 14.3721L51.9873 14.3721Q52.0313 16.0684 52.8442 16.9473Q53.6572 17.8262 55.1338 17.8262Q56.6895 17.8262 58.21 17.1758L58.21 18.4766Q57.4365 18.8105 56.7466 18.9556Q56.0566 19.1006 55.0811 19.1006ZM66.3223 18.3711Q67.3242 17.6416 67.3242 16.2969Q67.3242 15.3389 66.7222 14.7061Q66.1201 14.0732 64.4063 13.4492Q63.1582 12.9834 62.7188 12.7373Q62.2793 12.4912 62.0815 12.2188Q61.8838 11.9463 61.8838 11.5596Q61.8838 10.9883 62.4111 10.6631Q62.9385 10.3379 63.9756 10.3379Q65.1533 10.3379 66.6035 10.9355L67.1221 9.74902Q65.6367 9.11621 64.0811 9.11621Q62.4111 9.11621 61.4531 9.79736Q60.4951 10.4785 60.4951 11.6563Q60.4951 12.3154 60.772 12.79Q61.0488 13.2646 61.6157 13.6382Q62.1826 14.0117 63.5273 14.5127Q64.9424 15.0576 65.4302 15.4575Q65.918 15.8574 65.918 16.4199Q65.918 17.167 65.3027 17.5317Q64.6875 17.8965 63.5449 17.8965Q62.8066 17.8965 62.0112 17.6943Q61.2158 17.4922 60.5215 17.1406L60.5215 18.4941Q61.5938 19.1006 63.5098 19.1006Q65.3203 19.1006 66.3223 18.3711ZM27.3252 9.29199L30.9814 18.9248L32.6865 18.9248L36.3428 9.29199L34.7783 9.29199Q32.9854 14.2139 32.4712 15.6772Q31.957 17.1406 31.8604 17.6064L31.79 17.6064Q31.667 17.0088 30.9639 15.0049L28.8896 9.29199L27.3252 9.29199ZM39.3486 18.9248L37.8896 18.9248L37.8896 9.29199L39.3486 9.29199L39.3486 18.9248ZM13.2495 11.0938Q13.9395 10.3379 15.0996 10.3379Q16.2422 10.3379 16.8574 11.0718Q17.4727 11.8057 17.4727 13.1855L12.4365 13.1855Q12.5596 11.8496 13.2495 11.0938ZM54.6855 10.3379Q53.5254 10.3379 52.8354 11.0938Q52.1455 11.8496 52.0225 13.1855L57.0586 13.1855Q57.0586 11.8057 56.4434 11.0718Q55.8281 10.3379 54.6855 10.3379Z" />
      </g>
    </g>
  </g>
</svg>