<?xml version="1.0" standalone="no"?>
<svg viewBox="0 0 200 200" xmlns="http://www.w3.org/2000/svg">
  <path fill="#E76346" d="M16.7,-26.3C28.4,-22.2,49.2,-31.3,50.9,-29.1C52.7,-27,35.3,-13.5,27.3,-4.6C19.3,4.2,20.5,8.4,22.1,16.3C23.6,24.1,25.5,35.7,21.8,45.4C18.2,55.1,9.1,63,2.3,59C-4.4,54.9,-8.8,38.9,-11.1,28.4C-13.4,17.9,-13.6,13,-13.6,9.1C-13.5,5.3,-13.2,2.7,-18.9,-3.3C-24.6,-9.3,-36.4,-18.5,-39.8,-28.2C-43.3,-37.9,-38.5,-48.1,-30.4,-54.4C-22.4,-60.6,-11.2,-62.9,-4.4,-55.4C2.5,-47.8,5,-30.5,16.7,-26.3Z" transform="translate(100 100)" />
</svg>
