<?xml version="1.0"?>
<svg xmlns="http://www.w3.org/2000/svg" xmlns:xlink="http://www.w3.org/1999/xlink" xmlns:svgjs="http://svgjs.com/svgjs" version="1.1" width="512" height="512" x="0" y="0" viewBox="0 0 64 64" style="enable-background:new 0 0 512 512" xml:space="preserve" class=""><g><g xmlns="http://www.w3.org/2000/svg"><path d="m38.927 24h1.073c1.654 0 3-1.346 3-3v-5c0-.552.449-1 1-1h1 2 16v-14h-6v2h-4v2h-4v2h-4v6h-1c-1.654 0-3 1.346-3 3v5c0 .552-.449 1-1 1h-1.08c-.3-2.085-1.519-3.872-3.236-4.941.205-.664.316-1.352.316-2.059 0-2.421-1.237-4.559-3.111-5.816.066-.39.111-.785.111-1.184 0-3.859-3.14-7-7-7-2.543 0-4.774 1.363-6 3.397-1.226-2.034-3.457-3.397-6-3.397-3.86 0-7 3.141-7 7 0 .396.035.794.104 1.188-1.933 1.291-3.104 3.455-3.104 5.812 0 .715.109 1.406.309 2.056-2.034 1.266-3.309 3.506-3.309 5.944 0 2.507 1.329 4.704 3.316 5.941-.205.664-.316 1.352-.316 2.059 0 2.421 1.237 4.559 3.111 5.816-.066.391-.111.785-.111 1.184 0 3.859 3.14 7 7 7 1.959 0 3.728-.815 5-2.117v3.117c0 .552-.449 1-1 1h-14c-1.654 0-3 1.346-3 3s1.346 3 3 3h18.171c.267 0 .519.104.708.293l.828.828c.566.567 1.32.879 2.122.879h19.171v1.701l1.321.479-.595 1.273 3.82 3.82 1.273-.596.48 1.323h5.401l.48-1.321 1.273.596 3.82-3.82-.595-1.273 1.322-.481v-5.402l-1.321-.479.595-1.273-3.82-3.82-1.273.596-.48-1.323h-5.401l-.48 1.321-1.273-.596-3.82 3.82.595 1.273-1.322.481v1.701h-19.171c-.267 0-.519-.104-.708-.293l-.828-.828c-.566-.566-1.32-.879-2.122-.879h-18.171c-.551 0-1-.448-1-1s.449-1 1-1h14c1.654 0 3-1.346 3-3v-3.117c1.272 1.302 3.041 2.117 5 2.117h13c1.654 0 3-1.346 3-3v-6c0-.552.449-1 1-1h6.971c.01.084.029.164.029.25v1.75c0 2.206 1.794 4 4 4s4-1.794 4-4v-1.791c0-.68.322-1.293.862-1.64 2.591-1.666 4.138-4.496 4.138-7.569 0-2.561-1.096-5.008-3.006-6.714-1.909-1.706-4.478-2.515-7.039-2.228-4.051.458-7.365 3.723-7.88 7.763-.405 3.18.854 6.224 3.299 8.179h-5.374c-1.654 0-3 1.346-3 3v6c0 .552-.449 1-1 1h-8.111c1.301-1.272 2.111-3.042 2.111-5 0-.396-.035-.794-.104-1.188 1.933-1.291 3.104-3.455 3.104-5.812 0-.715-.109-1.406-.309-2.056 1.752-1.09 2.94-2.903 3.236-4.944zm20.073-21h2v10h-2zm-2 2v8h-2v-8zm-4 2v6h-2v-6zm-6 2h2v4h-2zm0 43.701.823-.3.447-.212.423-1.019-.562-1.201 1.837-1.838 1.2.56 1.08-.445.453-1.246h2.599l.299.823.203.442 1.031.426 1.2-.56 1.837 1.838-.562 1.201.447 1.077 1.245.454v2.598l-.823.3-.447.212-.423 1.019.562 1.201-1.837 1.838-1.198-.56-1.081.445-.454 1.246h-2.599l-.299-.823-.204-.443-1.031-.425-1.198.56-1.837-1.838.562-1.201-.447-1.077-1.246-.454zm7-13.701c-1.103 0-2-.897-2-2h4c0 1.103-.897 2-2 2zm-1-13c0-.552.449-1 1-1s1 .448 1 1-.449 1-1 1-1-.448-1-1zm-5.94-.926c.4-3.137 2.974-5.672 6.12-6.027.278-.032.555-.048.829-.048 1.725 0 3.353.617 4.652 1.778 1.486 1.328 2.339 3.232 2.339 5.223 0 2.39-1.204 4.591-3.22 5.888-1.057.679-1.703 1.833-1.768 3.112h-1.012v-6.184c1.161-.414 2-1.514 2-2.816 0-1.654-1.346-3-3-3s-3 1.346-3 3c0 1.302.839 2.402 2 2.816v6.184h-1.015c-.074-1.291-.711-2.439-1.749-3.103-2.308-1.474-3.525-4.088-3.176-6.823zm-33.06 17.926c-2.757 0-5-2.243-5-5 0-.097.015-.193.02-.29.629.186 1.292.29 1.98.29v-2c-2.757 0-5-2.243-5-5 0-.428.059-.846.164-1.252.586.159 1.2.252 1.836.252 3.86 0 7-3.141 7-7h-2c0 2.757-2.243 5-5 5s-5-2.243-5-5c0-1.665.836-3.196 2.18-4.118 1.256 1.878 3.396 3.118 5.82 3.118v-2c-2.757 0-5-2.243-5-5 0-1.872 1.036-3.572 2.702-4.438l.729-.379-.229-.787c-.134-.461-.202-.931-.202-1.396 0-2.757 2.243-5 5-5s5 2.243 5 5v30c0 2.757-2.243 5-5 5zm20.821-15.882c-1.257-1.878-3.397-3.118-5.821-3.118v2c2.757 0 5 2.243 5 5 0 1.872-1.036 3.572-2.702 4.438l-.729.379.229.788c.134.46.202.93.202 1.395 0 2.757-2.243 5-5 5s-5-2.243-5-5v-30c0-2.757 2.243-5 5-5s5 2.243 5 5c0 .097-.015.193-.02.29-.629-.186-1.292-.29-1.98-.29v2c2.757 0 5 2.243 5 5 0 .428-.059.846-.164 1.252-.586-.159-1.2-.252-1.836-.252-3.86 0-7 3.141-7 7h2c0-2.757 2.243-5 5-5s5 2.243 5 5c0 1.665-.836 3.196-2.179 4.118z" fill="#E76346" data-original="#000000" style="" class=""/><path d="m8 15h2c0-.552.449-1 1-1v-2c-1.654 0-3 1.346-3 3z" fill="#E76346" data-original="#000000" style="" class=""/><path d="m29 30c.551 0 1 .448 1 1h2c0-1.654-1.346-3-3-3z" fill="#E76346" data-original="#000000" style="" class=""/><path d="m24 29v2c.551 0 1 .448 1 1h2c0-1.654-1.346-3-3-3z" fill="#E76346" data-original="#000000" style="" class=""/><path d="m14 39v2c1.654 0 3-1.346 3-3h-2c0 .552-.449 1-1 1z" fill="#E76346" data-original="#000000" style="" class=""/><path d="m15 33c-.551 0-1-.448-1-1h-2c0 1.654 1.346 3 3 3z" fill="#E76346" data-original="#000000" style="" class=""/><path d="m26 12h2c0-1.654-1.346-3-3-3v2c.551 0 1 .448 1 1z" fill="#E76346" data-original="#000000" style="" class=""/><path d="m24 16h2c0-1.654-1.346-3-3-3v2c.551 0 1 .448 1 1z" fill="#E76346" data-original="#000000" style="" class=""/><path d="m15 19c-.551 0-1-.448-1-1h-2c0 1.654 1.346 3 3 3z" fill="#E76346" data-original="#000000" style="" class=""/><path d="m24 37h-2c0 1.654 1.346 3 3 3v-2c-.551 0-1-.448-1-1z" fill="#E76346" data-original="#000000" style="" class=""/><path d="m15 9v-2c-.551 0-1-.448-1-1h-2c0 1.654 1.346 3 3 3z" fill="#E76346" data-original="#000000" style="" class=""/><path d="m54 59c2.757 0 5-2.243 5-5s-2.243-5-5-5-5 2.243-5 5 2.243 5 5 5zm0-8c1.654 0 3 1.346 3 3s-1.346 3-3 3-3-1.346-3-3 1.346-3 3-3z" fill="#E76346" data-original="#000000" style="" class=""/></g></g></svg>
